# xmcd
#
# Track frame offsets:
#	182
#	14675
#	26305
#	42740
#	61582
#	79942
#	95885
#	112190
#	129900
#	144522
#	156370
#	169687
#	186425
#	205275
#	216747
#
# Disc length: 3099 seconds
#
# Revision: 0
# Processed by: cddbd v1.5.2PL0 Copyright (c) Steve Scherf et al.
# Submitted via: audiograbber 1.83.01
#
DISCID=e30c190f
DTITLE=Garth Brooks - MM6019
DYEAR=1993
DGENRE=Country
TTITLE0=Somewhere Other Than the Night
TTITLE1=Against the Grain
TTITLE2=Friends in Low Places
TTITLE3=Shameless
TTITLE4=Dance, The
TTITLE5=Thunder Rolls, The
TTITLE6=Unanswered Prayers
TTITLE7=If Tomorrow Never Comes
TTITLE8=Much Too Young To Feel This Damn Old
TTITLE9=Not Counting You
TTITLE10=Papa Loves Mama
TTITLE11=Rodeo
TTITLE12=River, The
TTITLE13=Two of a Kind Working on a Full House
TTITLE14=What She's Doing Now
EXTD=
EXTT0=
EXTT1=
EXTT2=
EXTT3=
EXTT4=
EXTT5=
EXTT6=
EXTT7=
EXTT8=
EXTT9=
EXTT10=
EXTT11=
EXTT12=
EXTT13=
EXTT14=
PLAYORDER=
